<svg width="749" height="651" viewBox="0 0 749 651" fill="none" xmlns="http://www.w3.org/2000/svg">
<g filter="url(#filter0_d)">
<path d="M425.569 626.433C233.18 611.415 3.74769 458.505 15.4284 301.059C27.1092 143.614 249.317 -2.95545 441.706 12.0625C634.095 27.0804 744.84 321.32 733.16 478.766C721.479 636.212 617.958 641.451 425.569 626.433Z" fill="#FE5F55" fill-opacity="0.7"/>
</g>
<path d="M625.019 333.269H229.55V347.458H625.019V333.269Z" fill="#414141"/>
<path opacity="0.3" d="M335.392 333.269H229.55V347.458H335.392V333.269Z" fill="white"/>
<path d="M337.08 347.458H327.873L332.692 525.294H337.08H341.468L346.299 347.458H337.08Z" fill="#414141"/>
<path opacity="0.3" d="M332.692 525.294H337.08V351.276L328.024 352.929L332.692 525.294Z" fill="white"/>
<path d="M249.815 347.458H240.607L245.426 525.294H249.815H254.203L259.022 347.458H249.815Z" fill="#414141"/>
<path opacity="0.3" d="M245.427 525.294H249.815V351.276L240.747 352.929L245.427 525.294Z" fill="white"/>
<path d="M604.753 347.458H595.546L600.365 525.294H604.753H609.142L613.972 347.458H604.753Z" fill="#414141"/>
<path opacity="0.3" d="M600.365 525.294H604.753V351.276L595.697 352.929L600.365 525.294Z" fill="white"/>
<path d="M517.488 347.458H508.281L513.1 525.294H517.488H521.877L526.696 347.458H517.488Z" fill="#414141"/>
<path opacity="0.3" d="M513.1 525.294H517.488V351.276L508.432 352.929L513.1 525.294Z" fill="white"/>
<path d="M417.268 257.306H323.24C322.477 257.276 321.717 257.427 321.024 257.746C320.33 258.065 319.722 258.544 319.248 259.143C318.775 259.743 318.45 260.445 318.3 261.194C318.15 261.943 318.18 262.717 318.386 263.452L330.911 323.224C331.314 324.914 332.257 326.427 333.597 327.534C334.936 328.641 336.601 329.281 338.337 329.358H432.435C433.196 329.387 433.954 329.237 434.647 328.918C435.34 328.599 435.947 328.122 436.42 327.524C436.893 326.926 437.218 326.225 437.369 325.478C437.52 324.73 437.493 323.958 437.289 323.224L424.752 263.452C424.349 261.75 423.398 260.227 422.046 259.117C420.694 258.007 419.016 257.371 417.268 257.306V257.306Z" fill="#263238"/>
<path d="M339.152 325.947C337.979 325.868 336.861 325.42 335.958 324.667C335.055 323.915 334.413 322.896 334.123 321.757L321.599 261.985C321.491 261.59 321.475 261.175 321.549 260.772C321.624 260.369 321.788 259.988 322.029 259.657C322.28 259.374 322.591 259.15 322.94 259.003C323.288 258.856 323.665 258.789 324.043 258.808H418.141C419.314 258.887 420.432 259.335 421.335 260.087C422.238 260.84 422.88 261.859 423.169 262.998L435.694 322.769C435.801 323.165 435.818 323.579 435.744 323.982C435.669 324.385 435.505 324.766 435.263 325.097C435.014 325.383 434.704 325.608 434.355 325.755C434.006 325.902 433.628 325.968 433.25 325.947H339.152Z" fill="white"/>
<path opacity="0.4" d="M410.144 321.163L398.271 264.488C398.205 264.152 398.213 263.806 398.295 263.474C398.377 263.142 398.531 262.832 398.747 262.567C398.963 262.301 399.234 262.086 399.542 261.938C399.85 261.789 400.187 261.71 400.529 261.706H415.801C416.331 261.71 416.843 261.895 417.253 262.229C417.664 262.563 417.948 263.028 418.059 263.545L429.932 320.174C429.999 320.509 429.991 320.855 429.908 321.187C429.826 321.52 429.672 321.829 429.456 322.095C429.241 322.361 428.969 322.575 428.661 322.724C428.353 322.873 428.016 322.952 427.674 322.956H412.402C411.879 322.954 411.372 322.776 410.962 322.451C410.553 322.126 410.264 321.672 410.144 321.163V321.163Z" fill="#414141"/>
<path d="M329.432 266.665L328.92 264.209H347.777L348.289 266.665H329.432Z" fill="#414141"/>
<path d="M338.139 272.764L337.627 270.308H370.673L371.197 272.764H338.139Z" fill="#EBEBEB"/>
<path d="M339.885 278.852L339.361 276.396H376.411L376.924 278.852H339.885Z" fill="#EBEBEB"/>
<path d="M341.62 284.951L341.107 282.495H370.929L371.453 284.951H341.62Z" fill="#EBEBEB"/>
<path d="M335.171 294.833L334.647 292.377H346.578L347.09 294.833H335.171Z" fill="#414141"/>
<path d="M343.866 300.921L343.354 298.465H357.88L358.404 300.921H343.866Z" fill="#EBEBEB"/>
<path d="M361.885 300.921L361.361 298.465H375.899L376.411 300.921H361.885Z" fill="#EBEBEB"/>
<path d="M345.612 307.02L345.1 304.564H394.221L394.733 307.02H345.612Z" fill="#EBEBEB"/>
<path d="M347.346 313.108L346.834 310.652H384.292L384.804 313.108H347.346Z" fill="#EBEBEB"/>
<path d="M461.197 328.997H337.394C334.019 328.997 331.83 330.917 332.54 333.269H468.623C467.925 330.917 464.573 328.997 461.197 328.997Z" fill="#263238"/>
<path opacity="0.1" d="M296.712 242.197L284.828 185.557C284.763 185.222 284.773 184.878 284.856 184.547C284.939 184.216 285.094 183.908 285.309 183.644C285.524 183.38 285.795 183.166 286.102 183.018C286.409 182.87 286.745 182.791 287.086 182.787H383.232C383.76 182.79 384.271 182.973 384.682 183.305C385.092 183.637 385.377 184.099 385.491 184.614L397.375 241.208C397.442 241.544 397.434 241.89 397.351 242.222C397.269 242.554 397.115 242.864 396.899 243.129C396.684 243.395 396.412 243.61 396.104 243.758C395.796 243.907 395.459 243.986 395.117 243.99H298.97C298.447 243.988 297.94 243.811 297.53 243.485C297.121 243.16 296.833 242.706 296.712 242.197V242.197Z" fill="#414141"/>
<path d="M330.887 184.649H310.704L310.25 182.473H330.434L330.887 184.649Z" fill="#414141"/>
<path opacity="0.4" d="M327.605 188.118H319.504L319.05 185.941H327.151L327.605 188.118Z" fill="#414141"/>
<path opacity="0.4" d="M341.084 188.118H328.606L328.152 185.941H340.63L341.084 188.118Z" fill="#414141"/>
<path opacity="0.4" d="M346.52 191.575H320.225L319.771 189.398H346.078L346.52 191.575Z" fill="#414141"/>
<path opacity="0.4" d="M343.179 195.044H320.947L320.493 192.867H342.725L343.179 195.044Z" fill="#414141"/>
<path opacity="0.4" d="M357.927 231.838H343.773L344.227 234.003H358.381L357.927 231.838Z" fill="#414141"/>
<path d="M340.281 227.089H319.55L319.096 224.912H339.827L340.281 227.089Z" fill="#414141"/>
<path opacity="0.4" d="M348.615 235.295H329.339L329.793 237.472H349.069L348.615 235.295Z" fill="#414141"/>
<path opacity="0.4" d="M342.772 231.838H328.618L329.072 234.003H343.226L342.772 231.838Z" fill="#414141"/>
<path opacity="0.4" d="M356.204 228.369H327.896L328.35 230.546H356.658L356.204 228.369Z" fill="#414141"/>
<path d="M330.177 168.493H307.34L306.886 166.328H329.723L330.177 168.493Z" fill="#414141"/>
<path opacity="0.4" d="M341.457 176.711H316.268L316.722 178.887H341.899L341.457 176.711Z" fill="#414141"/>
<path opacity="0.4" d="M336.416 173.254H315.546L316 175.419H336.87L336.416 173.254Z" fill="#414141"/>
<path opacity="0.4" d="M337.802 169.785H314.824L315.278 171.962H338.256L337.802 169.785Z" fill="#414141"/>
<path d="M329.921 200.678H314.044L313.59 198.501H329.467L329.921 200.678Z" fill="#414141"/>
<path opacity="0.4" d="M354.854 208.884H323.833L324.287 211.06H355.296L354.854 208.884Z" fill="#414141"/>
<path opacity="0.4" d="M335.962 205.427H323.112L323.566 207.603H336.416L335.962 205.427Z" fill="#414141"/>
<path opacity="0.4" d="M349.907 205.427H337.057L337.511 207.603H350.361L349.907 205.427Z" fill="#414141"/>
<path opacity="0.4" d="M350.699 201.958H322.39L322.844 204.135H351.141L350.699 201.958Z" fill="#414141"/>
<path opacity="0.4" d="M350.64 219.278H325.999L326.452 221.443H351.094L350.64 219.278Z" fill="#414141"/>
<path opacity="0.4" d="M332.447 215.81H325.277L325.731 217.986H332.889L332.447 215.81Z" fill="#414141"/>
<path opacity="0.4" d="M343.656 215.81H333.425L333.879 217.986H344.11L343.656 215.81Z" fill="#414141"/>
<path opacity="0.4" d="M352.864 212.352H324.555L325.009 214.517H353.318L352.864 212.352Z" fill="#414141"/>
<path opacity="0.4" d="M375.154 211.77H365.016L364.562 209.594H374.712L375.154 211.77Z" fill="#414141"/>
<path opacity="0.4" d="M392.032 211.77H376.411L375.958 209.594H391.578L392.032 211.77Z" fill="#414141"/>
<path opacity="0.4" d="M398.667 215.239H365.738L365.284 213.062H398.213L398.667 215.239Z" fill="#414141"/>
<path opacity="0.4" d="M394.291 218.696H366.459L366.005 216.52H393.837L394.291 218.696Z" fill="#414141"/>
<path opacity="0.4" d="M406.757 198H375.224L375.678 200.165H407.211L406.757 198Z" fill="#414141"/>
<path opacity="0.4" d="M400.634 194.532H374.502L374.956 196.708H401.077L400.634 194.532Z" fill="#414141"/>
<path d="M395.908 191.074H367.134L367.588 193.24H396.362L395.908 191.074Z" fill="#414141"/>
<path opacity="0.4" d="M408.177 232.548H369.346L369.8 234.725H408.631L408.177 232.548Z" fill="#414141"/>
<path opacity="0.4" d="M384.711 229.091H368.624L369.078 231.256H385.165L384.711 229.091Z" fill="#414141"/>
<path opacity="0.4" d="M402.171 229.091H386.084L386.538 231.256H402.625L402.171 229.091Z" fill="#414141"/>
<path opacity="0.4" d="M403.335 225.622H367.903L368.357 227.799H403.789L403.335 225.622Z" fill="#414141"/>
<path opacity="0.4" d="M402.357 242.931H371.511L371.965 245.107H402.811L402.357 242.931Z" fill="#414141"/>
<path opacity="0.4" d="M379.764 239.474H370.789L371.243 241.65H380.218L379.764 239.474Z" fill="#414141"/>
<path opacity="0.4" d="M393.802 239.474H380.998L381.452 241.65H394.256L393.802 239.474Z" fill="#414141"/>
<path opacity="0.4" d="M405.511 236.005H370.068L370.522 238.182H405.954L405.511 236.005Z" fill="#414141"/>
<path opacity="0.4" d="M311.134 245.62H286.993L287.447 247.796H311.588L311.134 245.62Z" fill="#414141"/>
<path opacity="0.4" d="M303.999 242.162H286.271L286.725 244.328H304.441L303.999 242.162Z" fill="#414141"/>
<path opacity="0.4" d="M322.96 242.162H305.244L305.698 244.328H323.426L322.96 242.162Z" fill="#414141"/>
<path opacity="0.4" d="M320.993 238.694H285.55L286.004 240.87H321.436L320.993 238.694Z" fill="#414141"/>
<path d="M592.066 310.652H577.12L578.866 333.269H590.32L592.066 310.652Z" fill="#414141"/>
<path opacity="0.4" d="M592.066 310.652H577.12L578.866 333.269H590.32L592.066 310.652Z" fill="white"/>
<path d="M266.355 294.95H287.843L280.509 333.269H259.022L266.355 294.95Z" fill="#263238"/>
<path d="M293.721 284.683H263.375L271.873 333.269H302.218L293.721 284.683Z" fill="#414141"/>
<path d="M261.583 284.683H263.375L271.873 333.269H270.08L261.583 284.683Z" fill="#414141"/>
<path opacity="0.3" d="M261.583 284.683H263.375L271.873 333.269H270.08L261.583 284.683Z" fill="black"/>
<path d="M276.238 328.066L269.556 289.875H289.367L296.037 328.066H276.238Z" fill="white"/>
<path opacity="0.6" d="M295.095 328.066L288.425 289.875H289.368L296.037 328.066H295.095Z" fill="#414141"/>
<path d="M444.028 222.584C444.459 223.515 444.319 224.505 443.702 224.784C443.085 225.063 442.247 224.54 441.817 223.62C441.386 222.7 441.537 221.699 442.143 221.42C442.748 221.141 443.598 221.606 444.028 222.584Z" fill="#263238"/>
<path d="M444.401 224.423C444.401 224.423 444.773 230.779 443.633 234.457C445.961 235.237 448.475 233.293 448.475 233.293L444.401 224.423Z" fill="#FF5652"/>
<path d="M444.145 214.89C444.046 214.972 443.924 215.021 443.796 215.03C443.038 215.05 442.296 215.249 441.63 215.611C440.965 215.973 440.394 216.488 439.966 217.113C439.928 217.185 439.876 217.248 439.812 217.299C439.749 217.35 439.676 217.388 439.598 217.41C439.52 217.432 439.439 217.439 439.358 217.429C439.277 217.419 439.2 217.393 439.129 217.352C439.059 217.312 438.998 217.257 438.949 217.192C438.9 217.128 438.865 217.054 438.845 216.975C438.825 216.896 438.822 216.814 438.834 216.734C438.847 216.654 438.876 216.577 438.918 216.508C439.446 215.707 440.158 215.045 440.994 214.577C441.831 214.11 442.768 213.849 443.726 213.819C443.853 213.812 443.979 213.845 444.086 213.914C444.194 213.983 444.276 214.084 444.323 214.203C444.369 214.322 444.377 214.452 444.345 214.575C444.313 214.699 444.243 214.809 444.145 214.89V214.89Z" fill="#263238"/>
<path d="M478.308 221.141C481.905 233.595 485.921 243.257 490.821 248.774C490.821 248.774 490.914 258.563 474.234 263.219C455.89 268.341 462.92 256.561 462.92 256.561C472.232 251.381 471.347 243.559 464.34 240.579L478.308 221.141Z" fill="#FF8B7B"/>
<path d="M494.709 246.388C494.383 241.837 493.952 236.645 491.147 236.505C488.051 236.366 470.125 244.374 466.296 250.02C462.466 255.665 469.951 261.194 469.951 261.194L494.709 246.388Z" fill="#263238"/>
<path d="M458.02 316.868L442.539 316.356L442.818 329.323C442.818 329.323 456.32 327.926 456.914 324.376L458.02 316.868Z" fill="#FF8B7B"/>
<path d="M434.356 322.723L432.726 329.358L442.818 329.334L442.539 316.367L434.356 322.723Z" fill="#FF8B7B"/>
<path d="M520.154 262.986L519.828 266.315C519.723 267.386 519.584 268.434 519.444 269.493C519.176 271.6 518.839 273.707 518.478 275.802C517.779 280.004 516.871 284.183 515.824 288.385C514.759 292.667 513.469 296.891 511.959 301.038C511.156 303.168 510.318 305.298 509.317 307.463C508.308 309.734 507.141 311.931 505.825 314.039C505.511 314.587 505.115 315.203 504.731 315.716C504.347 316.228 503.974 316.88 503.567 317.415C503.16 317.951 502.729 318.579 502.193 319.126L501.437 319.988C501.166 320.305 500.879 320.608 500.575 320.895C498.242 323.18 495.508 325.015 492.509 326.308C487.908 328.282 483.026 329.519 478.04 329.975C475.771 330.242 473.524 330.347 471.324 330.405C469.124 330.464 466.924 330.405 464.759 330.289C462.594 330.173 460.452 329.986 458.322 329.73C456.192 329.474 454.12 329.137 451.862 328.683L452.235 316.519C459.667 315.219 467.014 313.47 474.234 311.281C475.84 310.759 477.418 310.153 478.96 309.465C480.273 308.911 481.529 308.228 482.708 307.428C483.394 307.015 483.975 306.449 484.407 305.775L484.745 305.24C484.901 305.011 485.045 304.774 485.176 304.53C485.342 304.262 485.493 303.987 485.63 303.703C485.781 303.401 485.944 303.121 486.095 302.784C487.463 299.798 488.588 296.707 489.459 293.541C490.414 290.119 491.31 286.557 492.032 282.868C492.753 279.178 493.452 275.453 494.092 271.693L494.977 266.036L495.78 260.53L520.154 262.986Z" fill="#414141"/>
<path opacity="0.2" d="M520.154 262.986L519.828 266.315C519.723 267.386 519.584 268.434 519.444 269.493C519.176 271.6 518.839 273.707 518.478 275.802C517.779 280.004 516.871 284.183 515.824 288.385C514.759 292.667 513.469 296.891 511.959 301.038C511.156 303.168 510.318 305.298 509.317 307.463C508.308 309.734 507.141 311.931 505.825 314.039C505.511 314.587 505.115 315.203 504.731 315.716C504.347 316.228 503.974 316.88 503.567 317.415C503.16 317.951 502.729 318.579 502.193 319.126L501.437 319.988C501.166 320.305 500.879 320.608 500.575 320.895C498.242 323.18 495.508 325.015 492.509 326.308C487.908 328.282 483.026 329.519 478.04 329.975C475.771 330.242 473.524 330.347 471.324 330.405C469.124 330.464 466.924 330.405 464.759 330.289C462.594 330.173 460.452 329.986 458.322 329.73C456.192 329.474 454.12 329.137 451.862 328.683L452.235 316.519C459.667 315.219 467.014 313.47 474.234 311.281C475.84 310.759 477.418 310.153 478.96 309.465C480.273 308.911 481.529 308.228 482.708 307.428C483.394 307.015 483.975 306.449 484.407 305.775L484.745 305.24C484.901 305.011 485.045 304.774 485.176 304.53C485.342 304.262 485.493 303.987 485.63 303.703C485.781 303.401 485.944 303.121 486.095 302.784C487.463 299.798 488.588 296.707 489.459 293.541C490.414 290.119 491.31 286.557 492.032 282.868C492.753 279.178 493.452 275.453 494.092 271.693L494.977 266.036L495.78 260.53L520.154 262.986Z" fill="black"/>
<path d="M451.42 278.456C457.191 303.34 460.44 328.743 461.116 354.279H529.268C529.641 345.863 528.22 298.407 521.364 264.127C520.756 261.022 519.533 258.07 517.767 255.445C516.002 252.819 513.729 250.573 511.083 248.838C508.438 247.103 505.472 245.914 502.36 245.341C499.248 244.769 496.053 244.824 492.963 245.503L492.637 245.585C484.128 247.517 471.918 250.636 464.701 253.372L464.41 253.488C459.584 255.365 455.604 258.933 453.214 263.527C450.824 268.12 450.186 273.427 451.42 278.456V278.456Z" fill="#414141"/>
<path opacity="0.2" d="M455.855 300.223C456.39 303.494 456.937 306.962 457.438 310.594C463.013 304.774 464.783 286.942 464.783 286.942L455.855 300.223Z" fill="black"/>
<path d="M399.238 317.718L383.768 316.274L383.256 329.23C385.812 329.935 388.514 329.928 391.066 329.208C393.619 328.487 395.925 327.082 397.736 325.144L399.238 317.718Z" fill="#FF8B7B"/>
<path d="M376.412 320.092L371.453 328.997L383.303 329.23L383.815 316.274L376.412 320.092Z" fill="#FF8B7B"/>
<path d="M476.993 272.485C475.922 274.522 474.967 276.326 473.897 278.188C472.826 280.051 471.801 281.867 470.696 283.671C468.507 287.302 466.237 290.864 463.84 294.391C459.025 301.614 453.692 308.476 447.881 314.924C444.769 318.395 441.387 321.614 437.766 324.55C437.312 324.935 436.777 325.307 436.276 325.714C435.776 326.122 435.333 326.448 434.588 326.878C433.843 327.309 433.215 327.74 432.54 328.112C431.864 328.485 431.166 328.822 430.479 329.125C427.912 330.24 425.225 331.056 422.471 331.558C417.654 332.37 412.746 332.479 407.898 331.884C405.627 331.623 403.373 331.235 401.147 330.72C400.037 330.464 398.943 330.173 397.864 329.847C396.7 329.521 395.757 329.16 394.512 328.683L396.432 316.67C403.742 315.681 411.646 314.412 417.093 311.944C418.303 311.447 419.441 310.794 420.481 310C420.899 309.713 421.289 309.385 421.645 309.023C421.726 308.918 422.087 308.604 422.355 308.348C422.622 308.091 422.937 307.847 423.228 307.544C425.719 305.075 428.052 302.451 430.212 299.687C434.898 293.642 439.276 287.364 443.33 280.877C445.425 277.583 447.462 274.231 449.499 270.867L452.502 265.815L455.401 260.845L476.993 272.485Z" fill="#414141"/>
<path d="M458.287 515.446H445.553L439.14 485.939H451.885L458.287 515.446Z" fill="#FF8B7B"/>
<path d="M444.843 512.723H459.16C459.409 512.732 459.649 512.82 459.844 512.975C460.038 513.13 460.178 513.344 460.243 513.584L462.757 524.921C462.817 525.197 462.814 525.482 462.748 525.756C462.681 526.03 462.554 526.285 462.374 526.503C462.195 526.72 461.969 526.894 461.712 527.011C461.456 527.128 461.177 527.186 460.895 527.18C455.901 527.098 453.468 526.807 447.171 526.807C443.295 526.807 438.325 527.203 432.982 527.203C427.639 527.203 426.929 521.918 429.118 521.441C438.942 519.288 439.594 516.331 442.771 513.503C443.341 512.994 444.08 512.716 444.843 512.723Z" fill="#263238"/>
<g opacity="0.2">
<path opacity="0.2" d="M451.897 485.951H439.14L442.701 502.293L455.203 501.164L451.897 485.951Z" fill="black"/>
</g>
<path d="M474.223 206.172C478.879 217.951 482.115 224.621 479.042 233.176C474.386 246.039 457.868 247.342 449.837 237.169C442.62 228.008 436.311 210.281 445.425 200.538C447.421 198.378 449.936 196.765 452.732 195.851C455.527 194.938 458.51 194.755 461.396 195.319C464.282 195.884 466.976 197.177 469.221 199.077C471.466 200.977 473.188 203.419 474.223 206.172V206.172Z" fill="#FF8B7B"/>
<path d="M451.851 223.818C449.942 226.379 448.475 228.323 448.475 228.323C448.475 228.323 444.552 218.58 446.054 214.11C444.145 210.327 440.292 215.903 438.837 208.535C437.382 201.166 443.679 193.251 446.054 191.61C446.299 192.469 446.408 193.36 446.38 194.252C452.796 189.045 460.951 186.47 469.194 187.047C468.505 188.072 468.067 189.244 467.914 190.469C467.914 190.469 481.73 192.797 484.873 200.619C483.762 200.089 482.589 199.698 481.381 199.455C483.914 203.087 484.918 207.569 484.175 211.933C483.172 218.299 482.651 224.731 482.615 231.174C482.743 234.48 473.676 240.801 468.147 234.049C462.618 227.298 451.851 223.818 451.851 223.818Z" fill="#263238"/>
<path d="M457.612 221.28C458.333 224.024 458.129 226.929 457.03 229.545C455.552 233.037 452.514 232.199 451.012 229.149C449.651 226.414 448.778 221.339 451.187 218.906C453.597 216.473 456.704 217.986 457.612 221.28Z" fill="#FF8B7B"/>
<path d="M481.544 354.232C481.544 354.232 422.366 375.697 420.632 404.087C417.419 456.385 438.802 497.789 438.802 497.789L458.404 495.693C458.404 495.693 454.912 478.862 452.316 431.487C449.045 371.948 550.092 432.884 529.28 354.232H481.544Z" fill="#414141"/>
<path opacity="0.5" d="M481.544 354.232C481.544 354.232 422.366 375.697 420.632 404.087C417.419 456.385 438.802 497.789 438.802 497.789L458.404 495.693C458.404 495.693 454.912 478.862 452.316 431.487C449.045 371.948 550.092 432.884 529.28 354.232H481.544Z" fill="white"/>
<path d="M433.378 490.572C433.285 490.572 436.497 499.278 436.497 499.278L460.941 496.881L459.719 488.965L433.378 490.572Z" fill="#414141"/>
<path d="M403.242 516.901H390.496L386.771 487.382H399.517L403.242 516.901Z" fill="#FF8B7B"/>
<path d="M390.403 512.711H404.371C404.623 512.708 404.868 512.792 405.066 512.949C405.263 513.106 405.4 513.326 405.453 513.572L407.991 524.898C408.065 525.175 408.074 525.466 408.016 525.748C407.958 526.029 407.836 526.293 407.659 526.519C407.481 526.744 407.254 526.926 406.995 527.049C406.735 527.171 406.451 527.232 406.164 527.226C401.147 527.145 393.883 526.865 387.54 526.877C380.16 526.877 378.751 527.284 370.08 527.296C364.842 527.296 363.386 522.023 365.575 521.476C375.539 519.288 378.728 519.043 387.33 513.724C388.238 513.102 389.303 512.751 390.403 512.711Z" fill="#263238"/>
<path opacity="0.2" d="M386.783 487.394L388.808 503.469L401.449 502.608L399.529 487.394H386.783Z" fill="black"/>
<path d="M461.116 354.232C461.116 354.232 364.155 362.834 365.202 411.536C366.285 462.193 385.211 496.357 385.211 496.357H404.138C404.138 496.357 400.553 470.074 401.193 420.208C401.379 405.274 431.574 400.338 461.046 398.592C486.514 397.079 510.353 382.564 520.247 359.016L522.284 354.232H461.116Z" fill="#414141"/>
<path opacity="0.5" d="M461.116 354.232C461.116 354.232 364.155 362.834 365.202 411.536C366.285 462.193 385.211 496.357 385.211 496.357H404.138C404.138 496.357 400.553 470.074 401.193 420.208C401.379 405.274 431.574 400.338 461.046 398.592C486.514 397.079 510.353 382.564 520.247 359.016L522.284 354.232H461.116Z" fill="white"/>
<path d="M380.777 491.27C380.695 491.27 384.024 500.023 384.024 500.023L406.885 498.382L405.547 490.467L380.777 491.27Z" fill="#414141"/>
<path d="M486.573 299.501L474.269 346.911C471.123 359.057 469.535 371.554 469.543 384.101V406.135C469.543 411.699 473.641 416.215 478.704 416.215H541.769C546.833 416.215 550.93 411.699 550.93 406.135V384.101C550.926 371.553 552.518 359.056 555.668 346.911L566.528 305.007C568.204 298.57 563.804 292.203 557.716 292.203H495.372C493.303 292.268 491.314 293.021 489.721 294.343C488.127 295.664 487.019 297.479 486.573 299.501Z" fill="#263238"/>
<path d="M408.131 393.261L410.191 405.018C411.285 411.199 416.721 416.215 422.343 416.215H492.451C498.073 416.215 501.763 411.199 500.669 405.018L498.608 393.261C497.363 386.219 491.182 380.516 484.78 380.516H417.524C411.076 380.516 406.897 386.219 408.131 393.261Z" fill="#263238"/>
<path d="M499.202 428.018H462.478L458.893 416.215H502.787L499.202 428.018Z" fill="#414141"/>
<path d="M487.399 428.018H474.281V515.796H487.399V428.018Z" fill="#414141"/>
<path opacity="0.7" d="M487.399 515.796H474.281V430.125L487.399 431.464V515.796Z" fill="white"/>
<path opacity="0.7" d="M484.198 515.796H481.067V430.812L484.198 431.138V515.796Z" fill="white"/>
<path d="M511.005 529.368H450.663C450.311 529.365 449.97 529.251 449.686 529.042C449.403 528.834 449.192 528.542 449.084 528.207C448.975 527.872 448.975 527.512 449.083 527.177C449.191 526.842 449.402 526.55 449.686 526.341L459.254 519.357C463.853 515.989 469.406 514.17 475.107 514.166H486.573C492.27 514.172 497.819 515.99 502.415 519.357L511.994 526.341C512.279 526.55 512.49 526.844 512.597 527.18C512.705 527.516 512.704 527.877 512.594 528.213C512.485 528.548 512.272 528.84 511.987 529.048C511.701 529.255 511.358 529.367 511.005 529.368Z" fill="#414141"/>
<defs>
<filter id="filter0_d" x="0" y="0" width="749" height="651" filterUnits="userSpaceOnUse" color-interpolation-filters="sRGB">
<feFlood flood-opacity="0" result="BackgroundImageFix"/>
<feColorMatrix in="SourceAlpha" type="matrix" values="0 0 0 0 0 0 0 0 0 0 0 0 0 0 0 0 0 0 127 0"/>
<feOffset dy="4"/>
<feGaussianBlur stdDeviation="7.5"/>
<feColorMatrix type="matrix" values="0 0 0 0 0 0 0 0 0 0 0 0 0 0 0 0 0 0 0.15 0"/>
<feBlend mode="normal" in2="BackgroundImageFix" result="effect1_dropShadow"/>
<feBlend mode="normal" in="SourceGraphic" in2="effect1_dropShadow" result="shape"/>
</filter>
</defs>
</svg>
